<?xml version="1.0" encoding="UTF-8"?>
<svg id="Layer_2" data-name="Layer 2" xmlns="http://www.w3.org/2000/svg" viewBox="0 0 572.81 503.57">
  <defs>
    <style>
      .cls-1 {
        fill: #fff;
        fill-rule: evenodd;
      }

      .cls-2 {
        fill: none;
        stroke: #fff;
        stroke-miterlimit: 22.93;
        stroke-width: 8px;
      }
    </style>
  </defs>
  <g id="Capa_1" data-name="Capa 1">
    <g>
      <ellipse class="cls-2" cx="286.4" cy="251.79" rx="293.03" ry="235.01" transform="translate(-82.48 155.1) rotate(-26.63)"/>
      <path class="cls-1" d="m397.29,189.45c-9.6,16.37-22.05,32.22-37.38,47.55-5.97,5.97-11.28,10.37-15.77,13.18-4.49,2.83-8.11,3.97-10.55,3.94-2.25-.12-3.02-.55-4.27-2.34-.89-1.48-1.48-3.61-1.48-6.58,0-6.51,1.48-14.28,4.6-23.23,4.4-12.39,10.82-24.83,19.29-37.29,8.12-12.04,20.81-27.35,38-45.79,2.22-2.47,3.88-4.43,5.08-6.05.61-.82,1.09-1.54,1.52-2.3.38-.8.84-1.46.91-3.16,0-.05,0-.1,0-.14l1.46-.07c4.62.04,7.56,1.24,9.79,3.38,3.23,3.22,4.8,7,4.84,12.38.02,12.24-5.16,27.88-16.03,46.51h0Zm28.84-72.39c-6.68-7.37-15.86-11.19-26.33-11.14-8.02,0-16.49,1.56-25.4,4.59-7.37,2.45-13.69,5.53-18.92,9.29-2.67,1.84-4.76,4.94-4.71,8.41-.04,2.6.99,5.27,2.79,7.15l.04.05.07.06c1.54,1.58,3.72,2.9,6.31,2.9,1.97-.04,3.56-.62,5.26-1.47-18.42,18.37-33.07,37.87-43.9,58.48-10.41,19.79-15.8,37.43-15.81,53.11-.02,6.68,1.71,12.85,5.18,18.13,4.41,6.7,11.13,10.64,18.73,10.64h.27c12.81-.1,26.39-8.18,41.83-22.99,18.12-17.48,33.49-37.2,46.1-59.14,11.67-20.58,17.74-38.3,17.77-53.61.03-9.45-3.11-17.9-9.28-24.47h0Zm-133.11,91.12c1.49,0,3.37.36,4.89,1.8,1.52,1.44,1.99,3.43,1.97,4.94-.11,3.43-1.54,6.39-3.83,10.67-2.33,4.2-5.71,9.36-10.15,15.6-7.53,10.6-15.88,19.34-25.09,26.18-10.36,7.64-20.56,11.77-30.57,11.79-.12,0-.22,0-.35,0-10.35,0-19.16-5.23-24.61-14.42-3.66-5.95-5.47-12.82-5.46-20.25.05-18.32,8.46-40.25,24.68-66.46,13.83-22.25,28.48-40.3,44.04-54.08,13.49-11.82,25.35-18.3,36.52-18.38,6.25-.09,11.99,2.49,15.52,7.33,2.9,3.76,4.31,8.44,4.29,13.43-.01,8.58-2.84,17.87-8.16,28.04-4.67,8.77-10.51,16.66-17.51,23.66-2.35,2.3-4.5,4.1-6.62,5.43-2.12,1.3-4.24,2.24-6.74,2.27-3.15.03-5.96-1.71-7.81-3.94-1.63-1.83-2.61-4.33-2.58-6.8.01-2.65,1.13-4.98,2.67-7,1.56-2.05,3.64-3.92,6.24-5.85,6.43-4.78,11.45-9.94,15.16-15.47,5.67-8.26,8.14-14.97,8.09-19.51,0-1.86-.44-2.54-.49-2.56-.08-.06-.21-.32-1.61-.36-2.28-.15-8.15,2.39-15.74,8.52-8.71,6.81-18.06,16.21-27.97,28.22-12.61,15.23-22.13,30.15-28.61,44.72-6.77,15.21-10.01,27.99-10,38.09.03,4.44,1.21,7.77,3.64,10.74,2.82,3.36,5.45,4.6,9.06,4.66,6.21.17,16.47-5.55,28.97-18.48,3.62-3.77,8.21-9.46,13.67-17.02,3.54-4.77,5.81-8.21,6.59-9.79.76-1.48,1.67-2.8,2.98-3.89,1.28-1.09,3.1-1.85,4.93-1.83h0Zm-97.45-49.53c-2.54-2.03-5.85-2.77-9.68-2.78-9.98.01-26.88,2.34-51.18,6.95l-.25.05c4.54-7.86,11.31-18.45,20.26-31.66l7.88-12.14c2.57-3.34,4.52-6.1,5.89-8.38,1.35-2.37,2.27-3.94,2.37-6.17-.02-.71-.13-1.37-.32-2,8.35-2.2,18.13-3.93,29.32-5.16,14.83-1.64,26.16-2.45,33.84-2.45h5.34c2.31.1,3.43.16,3.87.16,3.93-.02,7.15-.58,9.69-2.4,3.86-2.76,6.22-6.82,6.17-11.33.1-3.52-2.03-6.82-5.2-8.36-3.14-1.63-7.11-2.23-12.15-2.25-17.09,0-37.77,1.89-62.09,5.63-16.35,2.56-27.37,5.08-33.67,7.96-2.15,1-3.95,2.39-5.19,4.22-1.25,1.82-1.85,4.02-1.84,6.28,0,2.81.67,5.45,2.25,7.55.79,1.04,1.75,1.9,2.86,2.57-2.57,4.06-5.2,8.18-7.91,12.38-15.01,22.57-25.21,38.62-30.66,48.3-18.01,31.53-32.26,60.57-42.74,87.15-3.46,8.73-6.06,15.63-7.81,20.75-.88,2.56-1.55,4.67-2,6.38-.45,1.73-.73,2.94-.75,4.22,0,3.53,1.38,6.93,3.78,9.94,2.67,3.59,6.37,5.92,10.53,5.92h.07c2.89-.02,5.82-1.07,9.04-2.86,22.25-12.46,47.61-19.46,76.24-20.97,5.45-.14,8.71-.32,10.93-.96l.07-.02.06-.02c1.99-.7,3.77-1.92,4.94-3.65,1.18-1.72,1.69-3.81,1.68-5.95.12-4.08-1.85-8-5.51-9.65-3.57-1.75-8.3-2.42-14.46-2.44-9.21,0-18.99,1.01-29.34,3.01-7.96,1.71-19.95,5.3-36.22,10.78h-.03s-.03.02-.03.02c-.52.19-1.03.38-1.55.57,3.37-9.94,7.73-20.63,13.08-32.06,10.76-22.81,19.05-38.63,24.67-47.21,14.34-4.62,35.39-7.85,62.98-9.55,4.6-.25,7.97-.73,10.58-1.9,3.87-1.58,6.06-5.61,5.92-9.86.04-3.38-1.16-6.62-3.72-8.65Z"/>
      <path class="cls-1" d="m356.34,83.98c53.33-3.69,99.02,10.42,110.87,32.57,1.66-4.55,2.15-9.1,1.33-13.54-5.08-27.3-57.88-40.36-117.93-29.17-44.75,8.33-80.89,27.78-94.29,48.44,15.16-19.45,53.83-35.1,100.02-38.3Z"/>
      <path class="cls-1" d="m367.26,57.37c46.52-6.65,87.41-.72,99.12,13.25,1.18-3.19,1.34-6.29.35-9.2-6.09-17.95-53.14-22.61-105.1-10.41-38.71,9.09-69.22,24.98-79.74,39.91,12.12-14.26,45.07-27.79,85.36-33.54Z"/>
      <path class="cls-1" d="m123.86,357.45c-56.45-3.16-97.61-21.8-106.72-53.48-3.97-13.79-1.46-28.72,6.42-43.88-8.57,13.47-12.24,27.26-10,40.7,5.6,33.6,46.81,57.3,105.54,66.29.43-.89.86-1.78,1.32-2.7,1.16-2.38,2.31-4.67,3.44-6.92Z"/>
      <path class="cls-1" d="m456.4,217.3c-.63-7.86-2.09-15.37-4.29-22.47-6.92,53.88-47.9,109.7-102.35,134.2-1.45.66-2.9,1.27-4.35,1.87.05.11.1.22.15.33l.03.06c1.26,2.73,2.37,6.63,2.41,11.82v.42c-.07,3.05-.49,5.76-1.07,7.76-.57,2.01-1.19,3.28-1.55,4.14l-.04.11-.06.13s-.02.04-.04.07c66.47-13.69,116.2-75.54,111.15-138.44Z"/>
      <path class="cls-1" d="m323.97,349.89c-.78-.48-1.55-.7-2.33-.65-1.16.08-2.62.59-4.37,1.53-10.17,5.49-17.36,8.39-21.52,8.68-2.52.18-3.78-.51-3.78-2.07,0-2.76,4.94-7.23,14.83-13.37,3.69-2.35,5.53-4.14,5.53-5.34,0-.68-.44-1.39-1.31-2.14-1.46-1.38-2.91-2.03-4.36-1.92-.68.05-2.29.67-4.81,1.85-5.04,2.45-9.79,5.04-14.25,7.78-12.42,7.61-23.37,15.29-32.87,23.04,2.33-4.08,5.67-8.25,10.03-12.54,4.75-4.51,7.32-6.95,7.72-7.31,1.93-1.97,2.91-3.45,2.91-4.46s-.63-1.81-1.89-2.4c-1.07-.46-2.23-.65-3.49-.57-3.79.26-8.49,3.12-14.11,8.58-9.11,8.79-17.84,20.91-26.19,36.33-2.65,4.9-4.66,8.89-6.07,11.99-2.31-.85-3.78-1.53-4.39-2.05-3.2-2.75-4.8-6.21-4.8-10.39,0-3.92,2.28-8.97,6.84-15.16,6.7-8.97,10.04-14.66,10.04-17.09,0-1.15-.64-2.15-1.9-3.01-1.16-.8-2.47-1.14-3.92-1.04-2.62.18-5.29,1.55-8,4.1-2.81,2.83-5.09,5.99-6.85,9.48-3.29,6.45-7.22,12.39-11.78,17.83-8.82,10.47-15.7,15.87-20.65,16.22-1.17.08-2.07-.12-2.69-.57-.63-.46-.95-1.17-.95-2.11,0-3.7,2.43-9.01,7.28-15.89,4.16-5.88,10.27-12.45,18.32-19.7,3.59-3.15,5.39-5.37,5.39-6.65,0-.74-.49-1.45-1.46-2.13-1.16-.73-2.43-1.04-3.78-.94-2.43.17-5.53,1.5-9.31,3.98-4.85,3.11-9.74,7.46-14.68,13.07-10.66,12.01-16,22.37-16,31.08,0,2.9.91,5.34,2.76,7.3,2.62,2.78,6.29,4.02,11.05,3.69,5.52-.38,11.09-2.93,16.72-7.65,3.19-2.65,6.88-6.14,11.05-10.49.29,2.89.53,4.62.73,5.22.98,4.52,3.25,7.87,6.84,10.04,3.97,2.43,8.38,3.47,13.23,3.13.48-.03.94-.1,1.39-.18.72.13,1.55.17,2.53.1,3.3-.23,6.06-1.98,8.29-5.24,5.92-8.71,11.88-16.11,17.89-22.19,10.38-9.9,19.4-17.01,27.07-21.32-2.04,2.31-3.06,4.3-3.06,5.98,0,2.43,1.11,4.04,3.35,4.83,2.61.96,5.47,1.34,8.57,1.12,7.66-.53,15.76-3.33,24.29-8.38,8.14-4.75,12.22-8.15,12.22-10.16,0-.68-.44-1.28-1.31-1.84h0Zm-118.3-41.94c0,1.49-1.55,3.92-4.65,7.31-18.42,20.04-36.02,42.55-52.8,67.54-12.8,18.98-22.15,35.69-28.06,50.14-1.36,4.35-3.69,6.64-6.98,6.86-3.01.21-5.53-.69-7.56-2.71-1.36-1.32-2.05-2.76-2.05-4.31,0-6.2,8.49-21.91,25.46-47.12,10.86-16.21,20.89-29.93,30.11-41.16,3.69-4.58,12.56-15.22,26.62-31.92l3.92-4.63c-19.4,3.44-37.38,7.36-53.96,11.75-3.5,1.12-6.22,1.75-8.15,1.88-2.23.16-4.12-.42-5.67-1.73-.98-.73-1.46-1.65-1.46-2.73,0-2.9,3-5.24,9.01-7.01,16.1-4.5,35.06-8.92,56.87-13.27,27.34-5.34,53.62-8.89,78.83-10.65,8.53-.59,14.26-.62,17.16-.09,2.71.49,4.08,1.68,4.08,3.57,0,3.17-3.35,5.27-10.04,6.27-5.83.81-14.6,1.72-26.33,2.74-23.37,2.17-39.36,4.3-47.99,6.38,2.42.51,3.63,1.47,3.63,2.89Z"/>
      <path class="cls-1" d="m242.94,411.39c-7.42,1.14-14.3,2.6-20.64,4.39-1.35.47-2.37.72-3.11.72-.85,0-1.58-.38-2.18-1.16-.36-.46-.55-.97-.55-1.56,0-1.58,1.16-2.73,3.46-3.47,6.15-1.86,13.38-3.57,21.74-5.13,10.44-1.9,20.5-2.85,30.13-2.85,3.27,0,5.45.21,6.57.61,1.04.38,1.56,1.08,1.56,2.11,0,1.75-1.27,2.75-3.84,3.06-2.22.21-5.58.38-10.08.49-8.94.3-15.06.85-18.36,1.67.93.36,1.39.95,1.39,1.73,0,.82-.59,2.09-1.77,3.83-7.06,10.31-13.78,22-20.2,35.1-4.9,9.93-8.49,18.76-10.75,26.47-.51,2.34-1.4,3.51-2.68,3.51-1.14,0-2.11-.61-2.89-1.78-.51-.78-.78-1.59-.78-2.45,0-3.42,3.27-11.71,9.78-24.93,4.16-8.49,7.99-15.64,11.5-21.45,1.42-2.37,4.8-7.88,10.18-16.52l1.52-2.39Z"/>
      <path class="cls-1" d="m264.22,462.72c-1.37,2.37-2.58,4.29-3.65,5.73-1.9,2.6-3.89,3.99-6,4.21-1.8.19-3.28-.47-4.46-1.99-.82-1.06-1.31-2.39-1.48-3.99-.49-4.77.95-10.42,4.35-17.01,1.56-3.08,3.19-5.47,4.86-7.18,1.33-1.37,2.45-2.11,3.38-2.2.53-.06,1.03.11,1.52.51.42.36.65.76.7,1.16.06.7-.49,1.92-1.69,3.64-2.66,3.97-4.61,7.58-5.88,10.8-1.46,3.78-2.07,6.66-1.86,8.69.06.53.21.91.47,1.16.28.25.63.36,1.06.3,1.88-.19,4.21-3.17,6.99-8.9,1.44-3,2.6-6.25,3.51-9.78.46-1.92,1.16-3.65,2.07-5.2.89-1.4,1.84-2.16,2.83-2.26.55-.06,1.08.13,1.58.57.53.46.82,1.01.89,1.63.13,1.33-.82,4.44-2.89,9.36-1.39,3.4-1.97,6.17-1.75,8.3.23,2.3,1.04,4.18,2.43,5.68.38.42,1.46,1.01,3.27,1.78.85.38,1.35,1.12,1.46,2.18.08.66-.15,1.25-.68,1.8-.51.53-1.18.83-1.99.93-1.84.19-3.59-.36-5.26-1.63-1.5-1.18-2.58-3.02-3.21-5.47-.11-.34-.3-1.27-.57-2.85Z"/>
      <path class="cls-1" d="m284.65,449.66c2.68-4.61,5.9-9.26,9.7-13.94,1.35-1.69,2.85-3.3,4.48-4.84.82-.74,1.35-1.16,1.59-1.21.55-.11,1.18.15,1.92.82.42.38.68.74.76,1.1.15.65-.34,1.69-1.46,3.15-3.02,3.78-4.37,6.42-4.02,7.9.19.84.76,1.14,1.71.93,1.54-.36,3.93-2.26,7.12-5.7.55-.59,1.04-.93,1.48-1.02.28-.08.61,0,.97.23.4.25.65.55.72.91.27,1.08-.87,3.09-3.38,6.02-2.62,3.11-5.35,5.01-8.2,5.66-1.16.27-2.3.21-3.4-.17-.95-.32-1.58-1.12-1.88-2.43-.21-.91-.06-2.01.44-3.36-2.39,2.7-4.95,6.93-7.71,12.72-1.54,3.55-2.9,7.78-4.1,12.72-.44,1.84-1.29,2.9-2.51,3.19-1.35.3-2.16-.17-2.45-1.44-.28-1.21,0-4.75.85-10.57,1.29-8.66,3.11-15.57,5.51-20.73,1.46-3.19,2.9-4.94,4.31-5.28.47-.1.95-.06,1.4.13.55.27.89.66,1.02,1.2.11.55-.08,1.39-.57,2.52-.09.21-.78,1.65-2.03,4.29-1.12,2.51-1.88,4.92-2.28,7.21Z"/>
      <path class="cls-1" d="m317.2,425.97c.61-.17,1.18-.09,1.71.27.4.3.65.65.76,1.04.19.65-.02,1.86-.63,3.65-2.07,6.82-3.36,12.28-3.87,16.44-.59,4.29-.95,8.64-1.08,13.02-.06,1.96-.68,3.09-1.9,3.46-.72.19-1.37.08-1.97-.38-.51-.34-.85-.78-1.01-1.33-.3-1.06-.19-4.95.36-11.66.42-5.3,1.8-11.39,4.14-18.3.74-2.26,1.35-3.8,1.8-4.63.46-.85,1.03-1.39,1.69-1.58h0Zm4.44-22.73c1.59-.46,2.64.13,3.11,1.77.42,1.48.11,3.36-.95,5.64-.99,2.16-2.18,3.46-3.59,3.85-.66.19-1.29.09-1.86-.27-.57-.34-.95-.85-1.14-1.54-.49-1.71-.06-3.78,1.27-6.25.99-1.82,2.03-2.89,3.15-3.21Z"/>
      <path class="cls-1" d="m337.69,414.29c2.15-.84,3.89-1.06,5.26-.72,1.37.34,2.34,1.29,2.94,2.85.78,2.03.78,4.29-.02,6.76-.76,2.35-2.37,4.63-4.84,6.85-1.35,1.2-2.56,1.99-3.63,2.39-1.46.57-2.41.21-2.9-1.06-.34-.87-.17-1.69.49-2.45.15-.17,1.21-.93,3.17-2.22,1.18-.78,2.13-1.82,2.83-3.17.63-1.16.76-2.2.4-3.13-.27-.72-.68-1.18-1.23-1.37-.55-.17-1.23-.11-2.07.21-1.99.76-3.89,2.43-5.7,4.99-2.09,2.9-2.66,5.62-1.69,8.14.7,1.8,2.47,3.7,5.35,5.71,3.17,2.16,5.15,4.25,5.92,6.3,1.18,3.04.74,5.96-1.31,8.73-1.25,1.71-2.92,2.96-5.05,3.78-3.32,1.27-6.3,1.06-8.94-.63-1.86-1.23-3.25-3-4.14-5.32-1.03-2.7-1.2-5.24-.51-7.61.46-1.56,1.16-2.52,2.13-2.89.87-.34,1.44-.15,1.71.53.09.28.09.76,0,1.42-.23,1.8.06,3.7.82,5.71.66,1.69,1.8,2.89,3.47,3.61,1.46.63,2.89.66,4.27.13,1.33-.51,2.22-1.37,2.62-2.56.34-.99.27-2.09-.17-3.27-.57-1.44-2.13-3.02-4.67-4.71-3.51-2.32-5.77-4.77-6.78-7.37-1.33-3.47-.61-7.25,2.13-11.37,2.68-3.97,6.06-6.74,10.14-8.3Z"/>
      <path class="cls-1" d="m353.62,427.26c1.29-4.35,2.56-7.88,3.83-10.61,1.92-4.1,3.42-6.44,4.5-6.99.53-.27,1.08-.3,1.69-.11.55.19.93.49,1.16.93.32.65.27,1.97-.15,3.99-.63,3.17-.89,5.75-.76,7.71,3.74-11.77,7.04-18.38,9.87-19.82.61-.3,1.21-.38,1.82-.25.66.17,1.16.55,1.46,1.14.46.93.36,2.49-.32,4.67-2.96,9.63-3.38,16.52-1.27,20.66.85,1.69,1.78,2.75,2.75,3.17l2.15.97c.42.15.74.47.99.93.27.53.3,1.14.11,1.82-.23.78-.66,1.33-1.29,1.65-1.1.57-2.47.38-4.1-.53-1.96-1.08-3.51-2.73-4.67-4.99-1.52-3-2.22-6.47-2.07-10.42.04-1.4.28-3.36.76-5.89-1.73,3.55-3.11,7.94-4.14,13.14-.7,3.55-1.06,7.29-1.06,11.22,0,1.88-.49,3.08-1.52,3.59-1.1.57-1.99.23-2.64-1.03-.68-1.37-1.2-4.65-1.52-9.85-.17-2.96-.17-6.19,0-9.66-3.4,7.25-4.61,15.34-3.63,24.26.15,2.01-.34,3.3-1.5,3.89-.51.27-1.04.28-1.58.06-.57-.21-.99-.61-1.27-1.16-1.01-1.96-1.71-6.04-2.15-12.25-.47-6.55-.38-12.7.28-18.45.46-4.02,1.23-6.32,2.34-6.89,1.01-.49,1.77-.23,2.32.82.23.47.21,1.94-.08,4.4-.38,4.56-.49,7.84-.32,9.89Z"/>
      <path class="cls-1" d="m387.66,388.62c2.56-1.65,4.84-.93,6.85,2.18,2.68,4.12,4.16,10.59,4.46,19.42.28,9.57-1.52,15.61-5.41,18.13-1.8,1.18-3.66,1.2-5.6.06-.97-.55-1.84-1.42-2.62-2.6-2.58-3.97-4.01-9.17-4.29-15.61-.27-5.98.57-11.28,2.47-15.91,1.12-2.71,2.49-4.59,4.14-5.68h0Zm6.64,20.77c-1.18-.11-1.88-.34-2.11-.68-.15-.25-.09-1.25.17-3.02.78-4.95.53-8.39-.72-10.31-.15-.25-.4-.46-.7-.61-.55-.3-1.1-.28-1.63.08-.99.65-1.84,2.54-2.53,5.73-.87,4.1-1.1,7.88-.7,11.37.42,4.01,1.27,6.99,2.56,8.98.34.51.8.89,1.33,1.12.78.28,1.46.23,2.09-.17,1.5-.97,2.37-3.13,2.64-6.47.13-1.42.13-2.77-.06-4.06-.17-1.29-.28-1.96-.34-1.96Z"/>
      <path class="cls-1" d="m414.6,337.91c-.34,1.1-.59,2.2-.74,3.34-.21,2.07-.61,3.36-1.16,3.91-.44.4-.99.61-1.65.59-.74,0-1.33-.23-1.77-.68-.95-.99-1.06-3.7-.34-8.13,1.1-6.82,4.04-12.53,8.83-17.14,3.7-3.59,7.82-5.22,12.36-4.9,4.08.27,7.61,1.96,10.59,5.05,4.96,5.13,8.87,12.97,11.75,23.52,3.38,12.34,4.08,24.6,2.11,36.76-1.44,9.02-4.2,15.49-8.28,19.42-1.59,1.56-3.27,2.24-5.03,2.07-1.42-.15-2.58-.68-3.47-1.59-1.31-1.35-3.4-5.28-6.25-11.73-4.25-9.72-8.16-20.37-11.73-31.93-.55-1.75-2.28-7.92-5.22-18.55h0Zm1.97-5.47c1.18-.38,2.01-.32,2.47.15.34.34.89,1.94,1.65,4.75,3.65,13.75,7.71,26.35,12.19,37.86,3.99,10.37,6.8,16.38,8.41,18.05,1.04,1.08,2.05,1.12,3.08.13,1.69-1.63,3.09-4.77,4.2-9.38,1.4-5.73,1.69-13.35.84-22.84-.72-8.58-2.56-16.67-5.52-24.26-2.26-5.85-4.95-10.38-8.07-13.61-2.2-2.3-4.42-3.47-6.64-3.53-2.2-.04-4.42,1.01-6.66,3.17-2.26,2.18-4.23,5.35-5.92,9.51Z"/>
      <path class="cls-1" d="m456.23,332.18c.42-.47.93-.72,1.56-.74.51.04.91.19,1.21.46.51.42,1.02,1.56,1.52,3.38,2.09,6.78,4.08,12.02,5.96,15.74,1.92,3.89,4.04,7.67,6.38,11.39,1.04,1.63,1.16,2.94.34,3.91-.47.57-1.08.84-1.82.8-.63,0-1.16-.19-1.58-.53-.85-.72-2.92-4.01-6.21-9.87-2.6-4.59-4.86-10.42-6.8-17.45-.63-2.28-1.01-3.89-1.08-4.82-.11-.97.08-1.73.51-2.26h0Zm-9.07-21.32c1.06-1.29,2.26-1.39,3.55-.28,1.2.99,1.99,2.71,2.37,5.18.38,2.35.11,4.1-.82,5.2-.46.55-1.03.82-1.71.84-.66.02-1.25-.19-1.78-.63-1.37-1.14-2.16-3.11-2.43-5.9-.21-2.05.08-3.53.82-4.4Z"/>
      <path class="cls-1" d="m466.22,330.55c-6.36-11.88-10.99-22.31-13.86-31.25-1.96-6.06-3.13-10.76-3.59-14.11-.32-2.35-.11-4.01.59-4.95.28-.36.63-.59,1.08-.68.61-.19,1.16-.09,1.67.29.65.49,1.2,1.71,1.61,3.66,2.54,12.17,7.04,24.81,13.48,37.97,1.75-6.09,3.32-10.08,4.73-11.94,1.02-1.35,2.2-2.22,3.55-2.6,1.39-.38,2.54-.25,3.44.44.47.36.78.84.91,1.46.23.87.08,1.65-.46,2.37-.38.49-1.54,1.18-3.49,2.03-.51.27-1.03.72-1.52,1.37-2.24,2.98-3.55,7.56-3.93,13.76,2.16-1.16,4.21-1.58,6.13-1.29,2.68.44,5.43,1.73,8.24,3.83,7.27,5.49,13.29,13.4,18.09,23.81,2.03,4.44,3.28,8.22,3.74,11.3.53,3.32.06,5.96-1.42,7.92-1.12,1.48-2.73,2.15-4.84,1.97-1.75-.15-3.63-.99-5.68-2.53-4.39-3.3-9.72-9.93-16.02-19.88-.76-1.22-2.6-4.46-5.54-9.74-.72-1.33-1.52-2.7-2.41-4.12-.11.28-.27.53-.42.74-.61.8-1.35.85-2.24.19-1.56-1.18-2.18-4.52-1.84-10.02h0Zm7.01,2.89c1.88,4.02,5.3,10.04,10.21,18.04,5.01,8.2,9.49,13.78,13.44,16.76.76.57,1.59.89,2.47.95.91.04,1.58-.23,1.99-.8,1.39-1.82.13-6.57-3.78-14.2-4.33-8.56-9.34-14.98-15.06-19.29-2.22-1.67-4.21-2.51-6-2.51-.68,0-1.78.34-3.28,1.04Z"/>
      <path class="cls-1" d="m492.42,322.55l.85.51c.7.4,1.4.57,2.13.51,1.63-.13,2.98-1.1,4.04-2.92,2.32-4.02,1.92-10.44-1.22-19.27-.51-1.54-.59-2.64-.23-3.27.21-.36.57-.59,1.08-.66.38-.04.66,0,.89.13,1.25.72,2.49,3.47,3.7,8.3.95,3.76,1.37,7.42,1.25,10.99-.11,3.57-.85,6.53-2.2,8.88-1.39,2.39-3.32,3.82-5.81,4.23-1.69.25-3.53-.19-5.52-1.35-5.45-3.13-9.3-8.77-11.58-16.88-1.86-6.59-1.92-11.43-.13-14.5.47-.84,1.18-1.44,2.09-1.82,1.16-.44,2.3-.34,3.4.3,1.71.99,3.36,2.98,4.95,6,3.3,6.23,4.08,13.18,2.3,20.81h0Zm-3.17-3.19c.51-2.7.65-4.97.42-6.83-.47-3.27-1.44-6.21-2.9-8.81-.49-.95-1.06-1.59-1.69-1.96-.65-.38-1.16-.27-1.52.36-.47.84-.53,2.39-.13,4.67.65,4.06,2.6,8.26,5.83,12.57Z"/>
      <path class="cls-1" d="m503.35,288.02c-2.09-4.9-3.85-10.27-5.32-16.1-.53-2.11-.91-4.25-1.16-6.47-.09-1.1-.09-1.77,0-1.99.23-.51.84-.85,1.8-1.03.53-.13.97-.11,1.31.04.61.27,1.14,1.27,1.61,3.04,1.18,4.71,2.45,7.37,3.83,7.99.78.34,1.37.08,1.77-.82.65-1.48.57-4.54-.23-9.19-.13-.8-.11-1.4.08-1.8.11-.28.38-.49.78-.65.44-.17.84-.17,1.18-.02,1.03.46,1.96,2.58,2.81,6.38.93,3.99.8,7.33-.4,10.01-.49,1.1-1.23,1.97-2.2,2.64-.84.57-1.84.57-3.08.04-.84-.38-1.65-1.16-2.41-2.35.7,3.51,2.54,8.09,5.52,13.74,1.88,3.36,4.44,6.99,7.65,10.9,1.2,1.46,1.54,2.77,1.03,3.91-.55,1.25-1.42,1.61-2.6,1.08-1.16-.51-3.8-2.87-7.92-7.06-6.15-6.23-10.56-11.85-13.23-16.84-1.67-3.09-2.2-5.32-1.61-6.63.19-.46.51-.8.95-1.04.53-.28,1.04-.32,1.56-.09.51.23,1.06.87,1.69,1.96.09.21.84,1.61,2.2,4.21,1.31,2.41,2.77,4.46,4.39,6.15Z"/>
      <path class="cls-1" d="m521.37,266.38l.97.28c.8.23,1.54.23,2.22,0,1.59-.51,2.68-1.78,3.25-3.82,1.29-4.44-.66-10.57-5.83-18.38-.87-1.37-1.22-2.41-1.01-3.13.11-.4.4-.68.89-.89.34-.13.65-.17.89-.09,1.39.4,3.25,2.79,5.58,7.16,1.84,3.42,3.13,6.87,3.91,10.37.78,3.51.78,6.55.04,9.15-.76,2.68-2.3,4.52-4.59,5.52-1.59.68-3.47.68-5.7.06-6.04-1.73-11.13-6.27-15.26-13.59-3.4-5.96-4.59-10.65-3.61-14.09.27-.93.78-1.69,1.58-2.28,1.01-.72,2.13-.89,3.34-.55,1.88.55,3.95,2.09,6.19,4.61,4.67,5.24,7.04,11.81,7.14,19.67h0Zm-3.89-2.34c-.13-2.75-.53-4.99-1.2-6.72-1.2-3.06-2.79-5.66-4.8-7.82-.7-.78-1.39-1.27-2.05-1.46-.72-.19-1.18.04-1.37.72-.27.93.06,2.45.95,4.56,1.58,3.78,4.4,7.35,8.47,10.73Z"/>
      <path class="cls-1" d="m523.17,231.43c-.38-.55-.74-1.06-1.1-1.58-6.32-8.85-9.26-14.56-8.85-17.16.23-1.42,1.12-2.01,2.7-1.77,1.12.17,2.32,1.02,3.63,2.54,7.06,8.3,13.71,12.93,19.92,13.92,2.03.32,4.02.08,6.04-.74.91-.38,1.61-.53,2.09-.46.44.08.84.36,1.16.87.44.55.61,1.16.51,1.82-.25,1.5-1.41,2.62-3.47,3.34-1.94.72-4.2.87-6.76.46-4.94-.78-10.12-3.51-15.53-8.18,2.39,5.49,7.29,11.01,14.71,16.57,1.77,1.41,2.54,2.73,2.35,3.99-.11.61-.4,1.08-.91,1.42-.59.42-1.29.57-2.09.46-1.97-.32-6.8-3.4-14.47-9.26-4.16-3.13-7.16-5.58-9-7.29-1.78-1.71-2.6-3.06-2.45-4.04.08-.47.36-.89.87-1.27.61-.42,1.23-.59,1.9-.47.8.11,1.88.84,3.21,2.13,2.01,1.9,3.85,3.47,5.54,4.71Z"/>
      <path class="cls-1" d="m509.71,191.82c3.53,2.73,7.5,5.33,11.94,7.78,6.32,3.49,11.13,5.39,14.37,5.68.93.09,1.63-.04,2.16-.4.51-.34.8-.89.87-1.67.15-1.84-1.39-4.23-4.63-7.16-1.99-1.84-4.01-3.49-6.04-4.97-1.16-.82-1.71-1.65-1.63-2.47.04-.49.25-.89.61-1.2.36-.27.7-.38,1.04-.36,1.37.11,4.25,2.18,8.66,6.19,5.32,4.78,7.82,8.94,7.5,12.49-.17,1.88-1.16,3.38-3.02,4.48-1.18.68-2.77.93-4.8.76-4.48-.4-9.57-2.15-15.28-5.28-1.42-.76-4.84-2.83-10.23-6.17.15,1.03.21,1.8.17,2.34-.08.78-.32,1.46-.74,2.03-.59.78-1.29,1.12-2.07,1.06-.91-.08-1.61-.68-2.07-1.82-.13-.3-.25-1.71-.36-4.2-.08-.89-.32-2.24-.72-3.99-2.2-1.5-5.16-3.89-8.89-7.18-2.07-1.82-3.42-3.08-4.02-3.76-.84-.97-1.23-1.78-1.18-2.45.06-.47.34-.93.91-1.37.51-.42,1.03-.59,1.5-.55.95.09,2.77,1.29,5.43,3.61,1.73,1.52,3.13,2.68,4.21,3.44-.78-4.16-1.08-7.1-.93-8.85.17-2.01,1.12-2.94,2.83-2.79.85.08,1.44.47,1.8,1.22.19.38.28,1.35.3,2.9-.09.63.36,3.46,1.37,8.51.3,1.4.61,2.77.93,4.14Z"/>
      <path class="cls-1" d="m535.99,185.01l.99-.08c.82-.06,1.5-.3,2.05-.76,1.29-1.01,1.88-2.58,1.73-4.69-.32-4.61-4.25-9.7-11.77-15.28-1.29-.97-1.97-1.84-2.01-2.58-.04-.4.13-.8.53-1.16.27-.23.55-.36.8-.38,1.44-.1,4.01,1.5,7.69,4.8,2.9,2.58,5.32,5.39,7.25,8.41,1.92,3.02,2.98,5.89,3.17,8.58.19,2.79-.61,5.05-2.43,6.78-1.25,1.18-3.04,1.84-5.33,2.01-6.27.44-12.59-2.09-19-7.56-5.22-4.44-7.95-8.45-8.2-12-.08-.97.15-1.86.7-2.68.7-1.01,1.69-1.58,2.96-1.65,1.96-.13,4.42.59,7.4,2.2,6.21,3.34,10.69,8.68,13.48,16.02h0Zm-4.42-.95c-1.06-2.53-2.22-4.5-3.44-5.9-2.18-2.45-4.59-4.35-7.23-5.68-.93-.49-1.75-.72-2.45-.66-.74.06-1.1.44-1.04,1.14.06.95.89,2.28,2.45,3.95,2.79,3,6.7,5.39,11.71,7.16Z"/>
    </g>
  </g>
</svg>